<svg width="90" height="102" viewBox="0 0 90 102" fill="none" xmlns="http://www.w3.org/2000/svg">
<path opacity="0.55" d="M68.3369 89.7791C68.2843 90.6974 56.7927 90.7852 42.6684 89.976C28.5441 89.1667 17.1378 87.767 17.1904 86.8486C17.243 85.9303 28.7346 85.8425 42.8589 86.6517C56.9832 87.461 68.3895 88.8607 68.3369 89.7791Z" fill="#00BAC3"/>
<path d="M26.7671 50.2644C23.4971 46.3108 18.4813 41.4939 19.3487 35.8604C19.4737 35.0419 18.2199 34.7287 18.0894 35.5537C17.1333 41.7759 22.2343 46.8052 25.8674 51.1954C26.3996 51.8375 27.2927 50.901 26.7671 50.2644Z" fill="#263F54"/>
<path d="M70.7415 55.2831C73.1634 54.0773 74.9385 51.5756 76.6178 49.5317C78.5579 47.1718 80.3156 44.6775 81.5921 41.8939C81.9361 41.1405 80.8075 40.5057 80.4627 41.2628C79.2298 43.9475 77.5592 46.3574 75.6904 48.6329C74.0889 50.5823 72.378 53.0293 70.0719 54.1772C69.3237 54.5505 70.0025 55.6508 70.7451 55.284L70.7415 55.2831Z" fill="#263F54"/>
<path d="M36.902 73.7334C37.0953 72.9237 35.8368 72.6133 35.6426 73.4267C34.7356 77.247 34.1581 81.128 33.9044 85.0449C33.0309 85.2742 32.151 85.0638 31.4777 84.4069C30.8805 83.8233 29.9808 84.7543 30.5781 85.338C31.5324 86.2707 32.8935 86.6413 34.1702 86.3146C34.5446 86.4801 35.1186 86.2756 35.1457 85.7306C35.3691 81.6812 35.957 77.6775 36.8983 73.7325L36.902 73.7334Z" fill="#263F54"/>
<path d="M61.1608 86.8127C60.4584 87.4319 59.568 87.6023 58.7071 87.33C58.6418 83.4059 58.2623 79.503 57.54 75.6418C57.3876 74.8223 56.1159 75.0641 56.2674 75.8874C57.0098 79.8747 57.4021 83.902 57.4276 87.9573C57.4309 88.5058 57.9937 88.7329 58.3727 88.5904C59.6316 88.9792 61.0089 88.6731 62.0103 87.7903C62.6338 87.238 61.7835 86.2641 61.1562 86.8155L61.1608 86.8127Z" fill="#263F54"/>
<path d="M47.6643 29.4048C47.6643 29.4048 44.5431 23.8444 38.1507 20.969C31.7583 18.0936 26.7499 9.32723 26.7499 9.32723C26.7499 9.32723 26.2183 10.4497 26.1316 12.2673C26.1316 12.2673 24.2362 11.6648 23.6881 10.6706C23.6881 10.6706 24.6688 17.3254 37.0853 23.1429C44.2359 26.5354 47.6634 29.4085 47.6634 29.4085L47.6643 29.4048Z" fill="#00BAC3"/>
<path d="M52.4383 29.8167C52.4383 29.8167 56.4711 24.872 63.2587 23.1373C70.05 21.4035 76.4866 13.625 76.4866 13.625C76.4866 13.625 76.8174 14.8206 76.5887 16.6271C76.5887 16.6271 78.559 16.3597 79.2681 15.4723C79.2681 15.4723 77.157 21.8591 63.9301 25.4564C56.3031 27.5696 52.4309 29.8149 52.4309 29.8149L52.4383 29.8167Z" fill="#00BAC3"/>
<path d="M33.9398 16.3955C33.9398 16.3955 31.3158 23.9562 48.011 28.4294C48.011 28.4294 41.1888 13.8264 33.9398 16.3955Z" fill="#488B9B"/>
<path d="M68.1899 19.3542C68.1899 19.3542 69.4778 27.2536 52.2605 28.7953C52.2605 28.7953 61.7209 14.9462 68.1899 19.3542Z" fill="#488B9B"/>
<path d="M35.0565 16.1315C35.0565 16.1315 35.7178 22.2507 48.0074 28.4285C48.0074 28.4285 42.5607 14.2818 35.0565 16.1315Z" fill="#39737C"/>
<path d="M67.3757 18.9916C67.3757 18.9916 65.6507 24.9013 52.4664 28.822C52.4664 28.822 60.316 15.852 67.3757 18.9916Z" fill="#39737C"/>
<path d="M50.1339 28.6137C50.1339 28.6137 49.1653 18.9534 44.8317 14.2909C40.4973 9.63206 34.4992 12.4941 33.9366 16.3944C33.9366 16.3944 40.188 13.1989 48.0077 28.4283L50.1339 28.6137Z" fill="#00BAC3"/>
<path d="M47.1994 26.8466C47.1994 26.8466 48.375 25.04 49.59 25.3359L49.4105 27.3578L47.3499 27.1767L47.1985 26.8503L47.1994 26.8466Z" fill="#488B9B"/>
<path d="M50.134 28.6138C50.134 28.6138 52.7444 19.2618 57.8127 15.4144C62.881 11.567 68.3003 15.4181 68.1859 19.3571C68.1859 19.3571 62.5754 15.1348 52.2565 28.7982L50.1303 28.6129L50.134 28.6138Z" fill="#00BAC3"/>
<path d="M53.2812 27.4672C53.2812 27.4672 52.4422 25.4829 51.1953 25.5586L51.0158 27.5805L53.0765 27.7616L53.2821 27.4635L53.2812 27.4672Z" fill="#488B9B"/>
<path d="M48.4715 28.4671C48.4715 28.4671 47.6658 27.1167 48.6842 26.0034C49.7026 24.89 50.9904 25.321 51.5121 25.7649C52.0338 26.2089 52.7078 27.4254 52.0042 28.772L48.4715 28.4671Z" fill="#00BAC3"/>
<path d="M39.3835 17.416C39.3835 17.416 40.7675 14.866 43.9634 13.4379C43.9634 13.4379 44.3725 13.7018 45.355 14.8722C45.355 14.8722 43.2348 15.819 40.7374 18.4109C40.7374 18.4109 40.0113 17.8584 39.3835 17.416Z" fill="#77CAD8"/>
<path d="M41.1028 18.727C41.1028 18.727 43.4599 16.1009 45.6778 15.3149C45.6778 15.3149 45.8609 15.559 45.968 15.7299C45.968 15.7299 43.6849 16.7191 41.5441 19.1318C41.5441 19.1318 41.2762 18.8827 41.1065 18.7279L41.1028 18.727Z" fill="#77CAD8"/>
<path d="M60.2083 14.1394C60.2083 14.1394 63.0351 15.094 64.696 18.8277C64.696 18.8277 65.3165 18.6894 65.7823 18.7363C65.7823 18.7363 64.5852 15.315 61.4079 13.8722C61.4079 13.8722 60.5027 14.039 60.212 14.1403L60.2083 14.1394Z" fill="#77CAD8"/>
<path d="M59.7441 14.3085C59.7441 14.3085 62.245 15.4771 64.2562 18.9128C64.2562 18.9128 64.0618 18.9398 63.6846 19.0592C63.6846 19.0592 61.7538 15.823 59.1695 14.5637C59.1695 14.5637 59.4144 14.3612 59.745 14.3048L59.7441 14.3085Z" fill="#77CAD8"/>
<path d="M50.444 26.2953C50.7478 26.381 50.9728 26.5493 51.1477 26.811C51.2538 26.9698 51.5119 26.9701 51.6495 26.8549C51.811 26.7221 51.8032 26.5129 51.6935 26.3531C51.4581 26.0024 51.0942 25.7456 50.6925 25.6282C50.5097 25.5758 50.3045 25.6471 50.2347 25.8374C50.1702 26.0056 50.2574 26.242 50.444 26.2953Z" fill="#77CAD8"/>
<path d="M76.0852 17.9559C75.2638 18.7261 74.396 19.4302 73.4724 20.0737C73.096 20.3341 73.5731 20.865 73.9458 20.6037C74.8657 19.9592 75.7381 19.2524 76.5586 18.4859C76.8932 18.1723 76.4198 17.6423 76.0852 17.9559Z" fill="#77CAD8"/>
<path d="M66.8731 77.7354L24.9085 74.0203C24.2149 73.9609 23.6995 73.3463 23.7635 72.6499L27.589 29.4291L72.0698 33.3659L68.2443 76.5867C68.1849 77.2803 67.5704 77.7957 66.874 77.7317L66.8731 77.7354Z" fill="#FEFEFE"/>
<g opacity="0.35">
<path d="M31.787 34.1348L29.4282 33.926L25.8716 74.1055L28.2304 74.3143L31.787 34.1348Z" fill="#C0DEE2"/>
<path d="M36.4057 34.5443L34.0469 34.3354L30.4902 74.5149L32.849 74.7237L36.4057 34.5443Z" fill="#C0DEE2"/>
<path d="M40.9496 34.9468L38.5908 34.738L35.0341 74.9175L37.393 75.1263L40.9496 34.9468Z" fill="#C0DEE2"/>
<path d="M45.8456 35.3782L43.4868 35.1694L39.9301 75.3489L42.289 75.5577L45.8456 35.3782Z" fill="#C0DEE2"/>
<path d="M50.4565 35.7864L48.0977 35.5776L44.541 75.7571L46.8998 75.9659L50.4565 35.7864Z" fill="#C0DEE2"/>
<path d="M54.9999 36.1895L52.6411 35.9807L49.0844 76.1602L51.4433 76.369L54.9999 36.1895Z" fill="#C0DEE2"/>
<path d="M59.9858 36.6251L57.627 36.4163L54.0703 76.5957L56.4291 76.8045L59.9858 36.6251Z" fill="#C0DEE2"/>
<path d="M64.5995 37.034L62.2407 36.8252L58.6841 77.0047L61.0429 77.2135L64.5995 37.034Z" fill="#C0DEE2"/>
<path d="M69.1401 37.4361L66.7812 37.2273L63.2246 77.4068L65.5834 77.6156L69.1401 37.4361Z" fill="#C0DEE2"/>
</g>
<path d="M73.2647 29.4129L26.7348 25.3923C26.0404 25.3323 25.4289 25.8466 25.3689 26.541L24.8673 32.3463C24.8073 33.0407 25.3215 33.6522 26.0159 33.7122L72.5458 37.7328C73.2402 37.7928 73.8517 37.2786 73.9117 36.5842L74.4133 30.7788C74.4733 30.0845 73.9591 29.4729 73.2647 29.4129Z" fill="#00BAC3"/>
<path opacity="0.26" d="M27.2007 33.8178C27.2007 33.8178 51.9362 35.0266 71.0551 44.8238L71.6883 37.6623L27.2016 33.8141L27.2007 33.8178Z" fill="#878787"/>
<path d="M51.4211 49.9434C51.4211 49.9434 48.3929 50.8919 46.0638 49.4679C43.7347 48.0439 43.269 49.8435 43.3706 50.7758C43.473 51.7045 44.7193 53.655 47.4396 54.0829C50.1609 54.5071 52.3952 53.8307 53.436 52.4645C54.6882 50.8252 53.3949 49.0353 51.4211 49.9434Z" fill="#263F54"/>
<path d="M45.0918 53.1706C45.0918 53.1706 46.8185 51.3495 48.2737 52.7797C48.2737 52.7797 49.3334 52.2515 50.0228 52.6815C50.7123 53.1116 51.0861 53.9381 51.0861 53.9381C51.0861 53.9381 49.9462 54.3294 47.9713 54.1497C46.3544 54.0101 45.3733 53.38 45.0918 53.1706Z" fill="#00BAC3"/>
<path d="M43.137 47.2527C43.062 48.1069 42.5211 48.7536 41.9271 48.7029C41.3331 48.6521 40.9138 47.9162 40.9888 47.062C41.0638 46.2079 41.6047 45.5611 42.1987 45.6119C42.7927 45.6627 43.2121 46.3986 43.137 47.2527Z" fill="#263F54"/>
<path d="M56.3421 48.4192C56.2671 49.2734 55.7262 49.9201 55.1322 49.8693C54.5382 49.8186 54.1188 49.0827 54.1939 48.2285C54.2689 47.3744 54.8098 46.7276 55.4038 46.7784C55.9978 46.8292 56.4171 47.5651 56.3421 48.4192Z" fill="#263F54"/>
<path d="M42.8087 46.5156C42.7993 46.6346 42.6965 46.7191 42.5775 46.7097C42.4585 46.7002 42.374 46.5975 42.3835 46.4785C42.3929 46.3595 42.4956 46.275 42.6146 46.2844C42.7336 46.2938 42.8181 46.3966 42.8087 46.5156Z" fill="#FEFEFE"/>
<path d="M56.1056 47.6921C56.0961 47.8111 55.9934 47.8956 55.8744 47.8862C55.7554 47.8767 55.6709 47.774 55.6803 47.655C55.6897 47.536 55.7925 47.4515 55.9115 47.4609C56.0305 47.4704 56.115 47.5731 56.1056 47.6921Z" fill="#FEFEFE"/>
<path d="M42.444 43.9778C41.7049 43.7196 40.8299 43.8429 40.4834 44.6231C40.3897 44.8311 40.7232 44.9554 40.8169 44.7474C41.0834 44.1511 41.7793 44.1211 42.3198 44.3114C42.5359 44.3875 42.6602 44.054 42.444 43.9778Z" fill="#263F54"/>
<path d="M55.6774 45.5734C56.2072 45.5185 56.7145 45.8768 56.8431 46.3932C56.8988 46.6141 57.2506 46.5512 57.1911 46.3293C57.0126 45.6169 56.3441 45.1489 55.6135 45.2253C55.385 45.2479 55.4517 45.6005 55.6774 45.5734Z" fill="#263F54"/>
<path d="M46.407 55.9596C47.4055 56.5822 48.5553 56.6002 49.6814 56.3776C49.9033 56.3338 49.844 55.983 49.6175 56.0295C48.5899 56.233 47.5307 56.245 46.6136 55.6734C46.4202 55.552 46.2127 55.8418 46.4061 55.9633L46.407 55.9596Z" fill="#263F54"/>
<path d="M26.9433 11.5847C27.3045 11.9974 27.6371 12.4305 27.9267 12.8961C28.0272 13.0614 28.2122 13.1534 28.4016 13.0666C28.5606 12.9918 28.6726 12.757 28.572 12.5917C28.2517 12.0755 27.8938 11.5854 27.4928 11.1278C27.1892 10.7839 26.6444 11.238 26.947 11.5856L26.9433 11.5847Z" fill="#77CAD8"/>
<path d="M73.0659 35.5878C73.1842 34.2669 73.2997 32.9414 73.418 31.6205C73.4793 30.9352 72.4148 30.8402 72.3572 31.5265C72.2389 32.8474 72.1243 34.1691 72.0052 35.4937C71.9439 36.1791 73.0083 36.274 73.0659 35.5878Z" fill="#D9FAFF"/>
<path d="M70.9732 31.5258C71.6586 31.5871 71.7535 30.5227 71.0673 30.4651C70.3819 30.4038 70.287 31.4682 70.9732 31.5258Z" fill="#D9FAFF"/>
<path d="M78.9516 31.6779C81.416 31.1006 83.2933 29.1753 83.8213 26.7023C83.911 26.286 83.2656 26.1249 83.175 26.5449C82.6964 28.7991 81.0031 30.5149 78.7624 31.0411C78.3472 31.1395 78.5364 31.7763 78.9516 31.6779Z" fill="#263F54"/>
<path d="M79.2262 33.2978C80.7481 32.8156 82.2765 32.7888 83.8159 33.2146C84.2268 33.3264 84.3833 32.6838 83.9733 32.5683C82.3351 32.1146 80.6602 32.1487 79.037 32.661C78.6303 32.7888 78.8195 33.4256 79.2262 33.2978Z" fill="#263F54"/>
<path d="M80.0004 35.1923C81.399 35.3451 82.684 35.7872 83.875 36.535C84.2378 36.7642 84.5597 36.1815 84.196 35.956C82.9541 35.1762 81.6099 34.704 80.1532 34.5488C79.7344 34.5015 79.5733 35.1469 79.9958 35.1951L80.0004 35.1923Z" fill="#263F54"/>
<path d="M15.7729 20.9376C18.6569 21.4327 21.1657 22.8575 23.0755 25.0714C23.3568 25.3942 23.8139 24.9148 23.5363 24.5929C21.5569 22.2955 18.9186 20.8079 15.9304 20.2913C15.5095 20.2201 15.353 20.8627 15.7729 20.9376Z" fill="#263F54"/>
<path d="M15.5355 25.6055C17.4287 25.8475 19.285 26.241 21.1156 26.7886C21.5238 26.9115 21.6812 26.2652 21.273 26.1423C19.4424 25.5947 17.5861 25.2013 15.692 24.9629C15.275 24.9083 15.1102 25.5528 15.5346 25.6092L15.5355 25.6055Z" fill="#263F54"/>
<path d="M14.0634 32.9696C16.2754 30.9068 18.9313 29.5272 21.8793 28.876C22.2973 28.7822 22.1035 28.1482 21.6902 28.2392C18.6308 28.9141 15.8776 30.3718 13.5849 32.5088C13.2714 32.8002 13.7498 33.261 14.0634 32.9696Z" fill="#263F54"/>
</svg>
