<svg width="40" height="40" viewBox="0 0 40 40" fill="none" xmlns="http://www.w3.org/2000/svg">
<path d="M20.3938 11.6434C21.6932 11.6434 23.322 10.7649 24.292 9.59362C25.1704 8.53214 25.811 7.04974 25.811 5.56734C25.811 5.36603 25.7927 5.16471 25.7561 5C24.3103 5.0549 22.5716 5.96997 21.5285 7.19615C20.7049 8.12952 19.9546 9.59362 19.9546 11.0943C19.9546 11.3139 19.9912 11.5336 20.0095 11.6068C20.101 11.6251 20.2474 11.6434 20.3938 11.6434ZM15.8185 33.7879C17.5937 33.7879 18.3806 32.5983 20.5951 32.5983C22.8462 32.5983 23.3403 33.7513 25.3168 33.7513C27.2568 33.7513 28.5561 31.9578 29.7823 30.2008C31.1549 28.1877 31.7223 26.2112 31.7589 26.1197C31.6308 26.0831 27.9156 24.5641 27.9156 20.2999C27.9156 16.603 30.8438 14.9376 31.0085 14.8095C29.0686 12.0277 26.1221 11.9545 25.3168 11.9545C23.139 11.9545 21.3638 13.2722 20.2474 13.2722C19.0395 13.2722 17.4473 12.0277 15.5623 12.0277C11.9752 12.0277 8.33325 14.9925 8.33325 20.5927C8.33325 24.0699 9.68755 27.7485 11.353 30.1276C12.7805 32.1408 14.0249 33.7879 15.8185 33.7879Z" fill="white"/>
</svg>
