<svg xmlns="http://www.w3.org/2000/svg" width="17" height="18" viewBox="0 0 17 18" fill="none">
    <path fill-rule="evenodd" clip-rule="evenodd" d="M5.09211 10.1011C4.58167 10.1011 4.16699 9.68643 4.16699 9.17599C4.16699 8.66706 4.58167 8.25238 5.09211 8.25238C5.60255 8.25238 6.01723 8.66706 6.01723 9.17599C6.01723 9.68643 5.60255 10.1011 5.09211 10.1011ZM8.68854 10.1011C8.1781 10.1011 7.76342 9.68643 7.76342 9.17599C7.76342 8.66706 8.1781 8.25238 8.68854 8.25238C9.19898 8.25238 9.61366 8.66706 9.61366 9.17599C9.61366 9.68643 9.19898 10.1011 8.68854 10.1011ZM11.3599 9.17599C11.3599 9.68643 11.7746 10.1011 12.285 10.1011C12.7955 10.1011 13.2102 9.68643 13.2102 9.17599C13.2102 8.66706 12.7955 8.25238 12.285 8.25238C11.7746 8.25238 11.3599 8.66706 11.3599 9.17599Z" fill="white"/>
    <path fill-rule="evenodd" clip-rule="evenodd" d="M8.516 1.08334C3.91641 1.08334 0.583496 4.84069 0.583496 9.0119C0.583496 10.3439 0.971413 11.7147 1.65225 12.9675C1.77891 13.1744 1.79475 13.4352 1.70766 13.6818L1.17725 15.4578C1.0585 15.886 1.42266 16.2023 1.82641 16.0755L3.42558 15.6005C3.861 15.4578 4.20141 15.6394 4.60516 15.886C5.761 16.567 7.20183 16.9167 8.50016 16.9167C12.4268 16.9167 16.4168 13.88 16.4168 8.98812C16.4168 4.76933 13.0127 1.08334 8.516 1.08334Z" stroke="white" stroke-linecap="round" stroke-linejoin="round"/>
</svg>