<svg width="17" height="16" viewBox="0 0 17 16" fill="none" xmlns="http://www.w3.org/2000/svg">
<g id="Iconly/Bold/Arrow - Down Circle">
<g id="Arrow - Down Circle">
<path id="Arrow - Down Circle_2" fill-rule="evenodd" clip-rule="evenodd" d="M8.50016 14.6666C4.82016 14.6666 1.8335 11.6733 1.8335 7.99992C1.8335 4.31992 4.82016 1.33325 8.50016 1.33325C12.1735 1.33325 15.1668 4.31992 15.1668 7.99992C15.1668 11.6733 12.1735 14.6666 8.50016 14.6666ZM8.41016 10.1633L11.5768 6.99665C11.8035 6.76998 11.8035 6.40331 11.5768 6.16998C11.3502 5.94331 10.9768 5.94331 10.7502 6.16998L7.99683 8.92331L6.83016 7.75665C6.6035 7.52998 6.23016 7.52998 6.0035 7.75665C5.77683 7.98331 5.77683 8.34998 6.0035 8.58331L7.59016 10.1633C7.7035 10.2766 7.85016 10.33 7.99683 10.33C8.15016 10.33 8.29683 10.2766 8.41016 10.1633Z" fill="white"/>
</g>
</g>
</svg>
