<svg xmlns="http://www.w3.org/2000/svg" width="29" height="28" viewBox="0 0 29 28" fill="none">
    <path d="M14.0676 0.00247928C14.0676 0.00247928 22.3807 -0.366512 26.7881 7.89856H13.3602C13.3602 7.89856 10.8261 7.81777 8.66145 10.8586C8.03959 12.1349 7.37119 13.4496 8.12129 16.0407C7.04074 14.23 2.38477 6.211 2.38477 6.211C2.38477 6.211 5.66893 0.329229 14.0676 0.00247928Z" fill="#EF3F36"/>
    <path d="M26.3562 20.9845C26.3562 20.9845 22.5202 28.2923 13.084 27.931C14.2499 25.9358 19.7998 16.429 19.7998 16.429C19.7998 16.429 21.1406 14.2993 19.5588 10.9241C18.7542 9.75164 17.9342 8.52534 15.2915 7.87177C17.4174 7.85266 26.7643 7.87177 26.7643 7.87177C26.7643 7.87177 30.266 13.6266 26.3562 20.9845Z" fill="#FCD900"/>
    <path d="M1.83664 21.0418C1.83664 21.0418 -2.6445 14.1029 2.39235 6.19922C3.55444 8.19444 9.10429 17.7012 9.10429 17.7012C9.10429 17.7012 10.3014 19.9155 14.044 20.246C15.4704 20.1422 16.955 20.0538 18.8517 18.1202C17.8061 19.9501 13.1151 27.9462 13.1151 27.9462C13.1151 27.9462 6.32165 28.0692 1.83664 21.0418Z" fill="#61BC5B"/>
    <path d="M13.0803 28.0001L14.9692 20.2041C14.9692 20.2041 17.0446 20.0425 18.7858 18.155C17.7052 20.035 13.0803 28.0001 13.0803 28.0001Z" fill="#5AB055"/>
    <path d="M7.74072 14.0878C7.74072 10.6511 10.5584 7.86401 14.0329 7.86401C17.5074 7.86401 20.3251 10.6511 20.3251 14.0878C20.3251 17.5245 17.5074 20.3115 14.0329 20.3115C10.5584 20.3077 7.74072 17.5245 7.74072 14.0878Z" fill="white"/>
    <path d="M8.79419 14.0883C8.79419 11.2283 11.1379 8.90625 14.0333 8.90625C16.9248 8.90625 19.2723 11.2245 19.2723 14.0883C19.2723 16.9485 16.9288 19.2705 14.0333 19.2705C11.1417 19.2705 8.79419 16.9485 8.79419 14.0883Z" fill="url(#paint0_linear_1677_19939)"/>
    <path d="M26.7607 7.87526L18.9838 10.1318C18.9838 10.1318 17.8101 8.42873 15.2878 7.87526C17.476 7.86368 26.7607 7.87526 26.7607 7.87526Z" fill="#EACA05"/>
    <path d="M7.96972 15.7558C6.8775 13.8836 2.38477 6.21045 2.38477 6.21045L8.14456 11.8462C8.14456 11.8462 7.55374 13.0495 7.77536 14.7716L7.96972 15.7558Z" fill="#DF3A32"/>
    <defs>
        <linearGradient id="paint0_linear_1677_19939" x1="14.0331" y1="8.97945" x2="14.0331" y2="18.9585" gradientUnits="userSpaceOnUse">
            <stop stop-color="#86BBE5"/>
            <stop offset="1" stop-color="#1072BA"/>
        </linearGradient>
    </defs>
</svg>