<svg xmlns="http://www.w3.org/2000/svg" width="19" height="20" viewBox="0 0 19 20" fill="none">
    <path d="M17.1 6.83333C17.4497 6.83333 17.7333 6.54978 17.7333 6.2C17.7333 5.85022 17.4497 5.56667 17.1 5.56667V6.83333ZM3.75469 4.06479C3.62479 3.74002 3.25621 3.58207 2.93145 3.71196C2.60669 3.84187 2.44872 4.21045 2.57863 4.53522L3.75469 4.06479ZM17.7333 10C17.7333 14.5477 14.0477 18.2333 9.5 18.2333V19.5C14.7473 19.5 19 15.2473 19 10H17.7333ZM9.5 18.2333C4.9523 18.2333 1.26667 14.5477 1.26667 10H0C0 15.2473 4.25273 19.5 9.5 19.5V18.2333ZM1.26667 10C1.26667 5.4523 4.9523 1.76667 9.5 1.76667V0.5C4.25273 0.5 0 4.75273 0 10H1.26667ZM9.5 1.76667C14.0477 1.76667 17.7333 5.4523 17.7333 10H19C19 4.75273 14.7473 0.5 9.5 0.5V1.76667ZM9.5 6.83333H17.1V5.56667H9.5V6.83333ZM6.28802 10.3981L3.75469 4.06479L2.57863 4.53522L5.11196 10.8686L6.28802 10.3981ZM11.7154 12.2817L7.09208 18.4883L8.10789 19.245L12.7313 13.0383L11.7154 12.2817ZM9.5 13.1667C7.7511 13.1667 6.33333 11.7489 6.33333 10H5.06667C5.06667 12.4485 7.05153 14.4333 9.5 14.4333V13.1667ZM12.6667 10C12.6667 11.7489 11.2489 13.1667 9.5 13.1667V14.4333C11.9485 14.4333 13.9333 12.4485 13.9333 10H12.6667ZM9.5 6.83333C11.2489 6.83333 12.6667 8.2511 12.6667 10H13.9333C13.9333 7.55153 11.9485 5.56667 9.5 5.56667V6.83333ZM9.5 5.56667C7.05153 5.56667 5.06667 7.55153 5.06667 10H6.33333C6.33333 8.2511 7.7511 6.83333 9.5 6.83333V5.56667Z" fill="white"/>
</svg>