<svg width="32" height="32" viewBox="0 0 32 32" fill="none" xmlns="http://www.w3.org/2000/svg">
<path fill-rule="evenodd" clip-rule="evenodd" d="M9.10107 7H18.0001C19.8571 7 21.6371 7.737 22.9501 9.05C24.2631 10.363 25.0001 12.143 25.0001 14V22.899C25.9531 22.704 26.8371 22.234 27.5361 21.536C28.4731 20.598 29.0001 19.326 29.0001 18C29.0001 15.023 29.0001 10.977 29.0001 8C29.0001 6.674 28.4731 5.402 27.5361 4.464C26.5981 3.527 25.3261 3 24.0001 3C21.0231 3 16.9771 3 14.0001 3C12.6741 3 11.4021 3.527 10.4641 4.464C9.76607 5.163 9.29607 6.047 9.10107 7Z" fill="#053139"/>
<path fill-rule="evenodd" clip-rule="evenodd" d="M23 14C23 12.674 22.473 11.402 21.536 10.464C20.598 9.527 19.326 9 18 9C15.023 9 10.977 9 8 9C6.674 9 5.402 9.527 4.464 10.464C3.527 11.402 3 12.674 3 14C3 16.977 3 21.023 3 24C3 25.326 3.527 26.598 4.464 27.536C5.402 28.473 6.674 29 8 29C10.977 29 15.023 29 18 29C19.326 29 20.598 28.473 21.536 27.536C22.473 26.598 23 25.326 23 24V14ZM8 24H18C18.552 24 19 23.552 19 23C19 22.448 18.552 22 18 22H8C7.448 22 7 22.448 7 23C7 23.552 7.448 24 8 24ZM8 20H18C18.552 20 19 19.552 19 19C19 18.448 18.552 18 18 18H8C7.448 18 7 18.448 7 19C7 19.552 7.448 20 8 20ZM8 16H18C18.552 16 19 15.552 19 15C19 14.448 18.552 14 18 14H8C7.448 14 7 14.448 7 15C7 15.552 7.448 16 8 16Z" fill="#053139"/>
</svg>
