<svg width="24" height="26" viewBox="0 0 24 26" fill="none" xmlns="http://www.w3.org/2000/svg">
<g id="Group 45924">
<path id="Vector" d="M4.70654 11.6414C4.70654 8.27084 4.70654 6.58555 5.75086 5.53844C6.79518 4.49133 8.47597 4.49133 11.8376 4.49133H15.4031C18.7647 4.49133 20.4454 4.49133 21.4898 5.53844C22.5341 6.58555 22.5341 8.27084 22.5341 11.6414V17.5999C22.5341 20.9704 22.5341 22.6557 21.4898 23.7028C20.4454 24.75 18.7647 24.75 15.4031 24.75H11.8376C8.47597 24.75 6.79518 24.75 5.75086 23.7028C4.70654 22.6557 4.70654 20.9704 4.70654 17.5999V11.6414Z" stroke="white" stroke-width="2"/>
<path id="Vector_2" d="M5.03085 21.5086C3.06167 21.5086 1.46533 19.9081 1.46533 17.9336V10.7835C1.46533 6.28934 1.46533 4.04229 2.85775 2.64614C4.25018 1.25 6.49124 1.25 10.9734 1.25H15.7274C17.6966 1.25 19.2929 2.85061 19.2929 4.82505" stroke="white" stroke-width="2"/>
</g>
</svg>
