<svg xmlns="http://www.w3.org/2000/svg" width="34" height="34" viewBox="0 0 34 34" fill="none">
    <path fill-rule="evenodd" clip-rule="evenodd" d="M15.8145 4.56814C16.1737 4.35985 16.583 4.25 17 4.25C17.417 4.25 17.8263 4.35985 18.1855 4.56814C18.5444 4.77621 18.84 5.07492 19.0419 5.43327M19.0425 5.43438L23.3251 13.0275C23.3269 13.03 23.3294 13.0319 23.3324 13.0329C23.3357 13.034 23.3393 13.0338 23.3425 13.0326C23.3424 13.0326 23.3426 13.0325 23.3425 13.0326L30.7212 9.80554L30.7251 9.80384C31.1234 9.63139 31.5627 9.57185 31.9935 9.63195C32.4243 9.69205 32.8295 9.86939 33.1633 10.144C33.4971 10.4185 33.7462 10.7794 33.8825 11.1858C34.0184 11.5912 34.0368 12.0257 33.9356 12.4407C33.9353 12.4418 33.935 12.443 33.9348 12.4441L30.214 27.986C30.1398 28.2859 30.0052 28.5682 29.8182 28.8161C29.6312 29.0641 29.3956 29.2726 29.1253 29.4295C28.855 29.5864 28.5554 29.6884 28.2444 29.7294C27.9333 29.7705 27.617 29.7499 27.3142 29.6687L27.3096 29.6675C20.5587 27.829 13.4267 27.829 6.67584 29.6675L6.67125 29.6687C6.36844 29.7499 6.05214 29.7705 5.74106 29.7294C5.42997 29.6884 5.13042 29.5864 4.86011 29.4295C4.58979 29.2726 4.35417 29.0641 4.16717 28.8161C3.98018 28.5682 3.8456 28.2859 3.7714 27.986L3.7691 27.9767L0.0652462 12.4441C0.0648914 12.4426 0.064538 12.4412 0.064186 12.4397C-0.0367876 12.025 -0.0183412 11.5908 0.117504 11.1858C0.253821 10.7794 0.50293 10.4185 0.836715 10.144C1.1705 9.86939 1.57567 9.69205 2.00649 9.63195C2.43732 9.57185 2.87665 9.63139 3.2749 9.80384L3.27882 9.80554L10.6571 13.0324C10.657 13.0323 10.6572 13.0324 10.6571 13.0324C10.6603 13.0337 10.6643 13.034 10.6676 13.0329C10.6705 13.0319 10.6731 13.03 10.6749 13.0275L14.9581 5.43327C15.16 5.07492 15.4556 4.77621 15.8145 4.56814M12.7034 14.1639C12.4156 14.6602 11.9509 15.0339 11.3993 15.213C10.8476 15.3921 10.2481 15.3638 9.71646 15.1336L9.71257 15.1319L2.33429 11.905L2.33611 11.9124L6.03977 27.4441C6.04026 27.4456 6.041 27.4471 6.04197 27.4484C6.04273 27.4494 6.04363 27.4503 6.04463 27.451C6.04515 27.4515 6.0457 27.4518 6.04628 27.4522C6.04796 27.4531 6.04983 27.4538 6.05175 27.454C6.05352 27.4543 6.05534 27.4542 6.0571 27.4538C13.2144 25.5054 20.7754 25.5058 27.9325 27.4549L27.621 28.5612L27.9279 27.4536C27.9298 27.4541 27.9317 27.4543 27.9337 27.454C27.9356 27.4538 27.9374 27.4531 27.9391 27.4522C27.9408 27.4512 27.9423 27.4499 27.9434 27.4484C27.9441 27.4475 27.9447 27.4465 27.9451 27.4455C27.9453 27.445 27.9455 27.4445 27.9457 27.444C27.9456 27.4443 27.9458 27.4437 27.9457 27.444L31.6642 11.9115L31.6657 11.905L24.2874 15.1319L24.2835 15.1336C23.7519 15.3638 23.1524 15.3921 22.6007 15.213C22.0491 15.0339 21.5845 14.6601 21.2967 14.1639L21.2898 14.152L17 6.54585L12.7034 14.1639Z" fill="#053139"/>
</svg>