<svg xmlns="http://www.w3.org/2000/svg" width="18" height="16" viewBox="0 0 18 16" fill="none">
    <path fill-rule="evenodd" clip-rule="evenodd" d="M11.0643 1.70174L17.1216 12.2143C17.255 12.5281 17.3133 12.7833 17.3299 13.0484C17.3633 13.6677 17.1466 14.2696 16.7217 14.7329C16.2968 15.1945 15.7219 15.467 15.097 15.5H2.89905C2.64076 15.4843 2.38247 15.4257 2.14084 15.3349C0.932711 14.8477 0.349475 13.4769 0.841059 12.2887L6.94003 1.69431C7.14833 1.3219 7.46494 1.00068 7.85654 0.794245C8.98969 0.16585 10.4311 0.578725 11.0643 1.70174ZM9.7229 8.62977C9.7229 9.02613 9.39795 9.35726 8.99802 9.35726C8.59809 9.35726 8.26481 9.02613 8.26481 8.62977V6.29373C8.26481 5.89654 8.59809 5.57533 8.99802 5.57533C9.39795 5.57533 9.7229 5.89654 9.7229 6.29373V8.62977ZM8.99802 12.1813C8.59809 12.1813 8.26481 11.8502 8.26481 11.4547C8.26481 11.0575 8.59809 10.7272 8.99802 10.7272C9.39795 10.7272 9.7229 11.05 9.7229 11.4456C9.7229 11.8502 9.39795 12.1813 8.99802 12.1813Z" fill="#D40000"/>
</svg>