<svg width="19" height="20" viewBox="0 0 19 20" fill="none" xmlns="http://www.w3.org/2000/svg">
<path d="M15.2985 7.99585C15.2985 7.99585 14.8686 13.3277 14.6193 15.5737C14.5005 16.6464 13.8379 17.275 12.7525 17.2948C10.687 17.332 8.61921 17.3343 6.55455 17.2908C5.51034 17.2694 4.8588 16.6329 4.74242 15.5792C4.49146 13.3135 4.06396 7.99585 4.06396 7.99585" stroke="#CC0C0C" stroke-width="1.3" stroke-linecap="round" stroke-linejoin="round"/>
<path d="M16.3938 5.43978H2.96875" stroke="#CC0C0C" stroke-width="1.3" stroke-linecap="round" stroke-linejoin="round"/>
<path d="M13.8072 5.43986C13.1857 5.43986 12.6506 5.00048 12.5287 4.39169L12.3363 3.42903C12.2175 2.9849 11.8154 2.67773 11.357 2.67773H8.00587C7.5475 2.67773 7.14533 2.9849 7.02658 3.42903L6.83421 4.39169C6.71229 5.00048 6.17712 5.43986 5.55566 5.43986" stroke="#CC0C0C" stroke-width="1.3" stroke-linecap="round" stroke-linejoin="round"/>
</svg>
