<svg xmlns="http://www.w3.org/2000/svg" width="24" height="24" viewBox="0 0 24 24" fill="none">
    <path fill-rule="evenodd" clip-rule="evenodd" d="M20.2188 12.6875H4.1875V4.375C4.1875 3.7195 4.7195 3.1875 5.375 3.1875H19.0312C19.6868 3.1875 20.2188 3.7195 20.2188 4.375V12.6875ZM20.2188 15.0625C20.2188 15.718 19.6868 16.25 19.0312 16.25H5.375C4.7195 16.25 4.1875 15.718 4.1875 15.0625V13.875H20.2188V15.0625ZM11.3125 17.4375H13.6875V19.8125H11.3125V17.4375ZM19.0312 2H5.375C4.06341 2 3 3.06341 3 4.375V15.0625C3 16.3741 4.06341 17.4375 5.375 17.4375H10.125V19.8125H8.9375C8.60916 19.8125 8.34375 20.0785 8.34375 20.4062C8.34375 20.7346 8.60916 21 8.9375 21H16.0625C16.3908 21 16.6562 20.7346 16.6562 20.4062C16.6562 20.0785 16.3908 19.8125 16.0625 19.8125H14.875V17.4375H19.0312C20.3428 17.4375 21.4062 16.3741 21.4062 15.0625V4.375C21.4062 3.06341 20.3428 2 19.0312 2Z" fill="white"/>
</svg>