<svg width="20" height="20" viewBox="0 0 20 20" fill="none" xmlns="http://www.w3.org/2000/svg">
<path fill-rule="evenodd" clip-rule="evenodd" d="M18.7097 11.25H1.29032V2.5C1.29032 1.81 1.86839 1.25 2.58065 1.25H17.4194C18.1316 1.25 18.7097 1.81 18.7097 2.5V11.25ZM18.7097 13.75C18.7097 14.44 18.1316 15 17.4194 15H2.58065C1.86839 15 1.29032 14.44 1.29032 13.75V12.5H18.7097V13.75ZM9.03226 16.25H11.6129V18.75H9.03226V16.25ZM17.4194 0H2.58065C1.15548 0 0 1.11937 0 2.5V13.75C0 15.1306 1.15548 16.25 2.58065 16.25H7.74194V18.75H6.45161C6.09484 18.75 5.80645 19.03 5.80645 19.375C5.80645 19.7206 6.09484 20 6.45161 20H14.1935C14.5503 20 14.8387 19.7206 14.8387 19.375C14.8387 19.03 14.5503 18.75 14.1935 18.75H12.9032V16.25H17.4194C18.8445 16.25 20 15.1306 20 13.75V2.5C20 1.11937 18.8445 0 17.4194 0Z" fill="#053139"/>
</svg>
