<svg width="65" height="68" viewBox="0 0 65 68" fill="none" xmlns="http://www.w3.org/2000/svg">
<g clip-path="url(#clip0_939_907)" filter="url(#filter0_d_939_907)">
<rect width="91" height="16" transform="translate(-17.0264 51.2395) rotate(-43.7673)" fill="url(#paint0_linear_939_907)"/>
<path d="M15.5509 36.5018C14.3323 37.6691 12.7261 37.7796 11.6497 36.7659L12.5552 35.8986C13.2025 36.4388 14.1202 36.3549 14.8014 35.7024C15.5716 34.9647 15.59 33.9167 14.8563 33.1508C14.1227 32.3849 13.0627 32.3455 12.301 33.0751C11.7721 33.5817 11.5461 34.2606 11.6942 34.8896L10.8268 35.7205L7.84105 31.9596L11.4758 28.478L12.2418 29.2777L9.36873 32.0298L10.995 34.0664L11.0162 34.0462C10.9139 33.4058 11.1903 32.6948 11.7869 32.1233C12.959 31.0006 14.6238 31.053 15.7587 32.2378C16.9584 33.4902 16.8669 35.2413 15.5509 36.5018ZM20.7851 31.4881C19.3211 32.8904 17.2782 32.4942 15.4138 30.5478C13.5615 28.6141 13.262 26.548 14.7176 25.1537C16.1774 23.7554 18.212 24.1514 20.0643 26.0851C21.9287 28.0316 22.2492 30.0857 20.7851 31.4881ZM20.0231 30.6926C20.8948 29.8576 20.5266 28.4821 19.112 27.0054C17.7178 25.5498 16.3428 25.1224 15.4796 25.9492C14.6164 26.776 14.9841 28.1764 16.3743 29.6277C17.7848 31.1003 19.1515 31.5275 20.0231 30.6926ZM21.7646 21.4057C22.6644 22.345 22.7195 23.4444 21.9197 24.2105C21.1158 24.9806 20.0198 24.8782 19.12 23.9389C18.2202 22.9995 18.1651 21.9001 18.9691 21.13C19.7688 20.364 20.8648 20.4663 21.7646 21.4057ZM21.3483 23.6138C21.6825 23.2937 21.5496 22.7313 20.9862 22.1432C20.4269 21.5592 19.8708 21.4022 19.5365 21.7224C19.198 22.0467 19.331 22.609 19.8903 23.1929C20.4537 23.7811 21.0097 23.9381 21.3483 23.6138ZM24.8648 27.3612L24.0269 28.1638L23.2955 22.6736L22.6424 17.7818L23.476 16.9834L24.1939 22.3324L24.8648 27.3612ZM28.3667 21.1913C29.2665 22.1307 29.3258 23.226 28.5219 23.9961C27.7179 24.7662 26.6261 24.6599 25.7263 23.7205C24.8225 22.7769 24.7632 21.6816 25.5671 20.9115C26.3711 20.1414 27.4629 20.2477 28.3667 21.1913ZM27.9463 23.3953C28.2848 23.071 28.1517 22.517 27.5883 21.9288C27.0249 21.3407 26.4771 21.1838 26.1386 21.5081C25.8001 21.8323 25.9332 22.3864 26.4966 22.9745C27.06 23.5627 27.6078 23.7195 27.9463 23.3953ZM34.1829 18.5979C32.9093 19.8179 31.2325 19.7445 29.8585 18.3101C28.4885 16.8799 28.4916 15.1974 29.761 13.9815C31.0304 12.7656 32.7114 12.8349 34.0814 14.2651C35.4554 15.6995 35.4566 17.3779 34.1829 18.5979ZM33.4615 17.8447C34.1808 17.1557 34.0989 16.1469 33.1505 15.1568C32.2061 14.1709 31.1975 14.0497 30.4824 14.7347C29.7673 15.4197 29.845 16.4325 30.7894 17.4184C31.7378 18.4086 32.7464 18.5297 33.4615 17.8447ZM37.1865 15.5586L33.6157 11.8307L33.0022 12.4184L32.3172 11.7033L32.9308 11.1156L32.5133 10.6798C31.6864 9.8166 31.7036 9.02129 32.6091 8.15393C32.7953 7.97559 33.0229 7.79814 33.1616 7.70581L33.8101 8.38283C33.705 8.45102 33.5742 8.5601 33.4515 8.67764C33.0538 9.05863 33.0581 9.43585 33.435 9.82936L33.8363 10.2483L34.7376 9.38496L35.4225 10.1001L34.5339 10.9512L38.1047 14.6791L37.1865 15.5586ZM39.9792 12.8835L36.4084 9.15569L35.7949 9.74339L35.1099 9.02828L35.7235 8.44058L35.306 8.00475C34.4792 7.14155 34.4963 6.34624 35.4018 5.47887C35.588 5.30054 35.8156 5.12309 35.9543 5.03076L36.6028 5.70778C36.4977 5.77597 36.3669 5.88505 36.2442 6.00259C35.8465 6.38358 35.8508 6.76079 36.2277 7.15431L36.629 7.57322L37.5303 6.7099L38.2152 7.42501L37.3266 8.27616L40.8974 12.004L39.9792 12.8835Z" fill="#3C3939"/>
</g>
<defs>
<filter id="filter0_d_939_907" x="-22.0264" y="-16.708" width="86.7837" height="84.502" filterUnits="userSpaceOnUse" color-interpolation-filters="sRGB">
<feFlood flood-opacity="0" result="BackgroundImageFix"/>
<feColorMatrix in="SourceAlpha" type="matrix" values="0 0 0 0 0 0 0 0 0 0 0 0 0 0 0 0 0 0 127 0" result="hardAlpha"/>
<feMorphology radius="1" operator="dilate" in="SourceAlpha" result="effect1_dropShadow_939_907"/>
<feOffset/>
<feGaussianBlur stdDeviation="2"/>
<feComposite in2="hardAlpha" operator="out"/>
<feColorMatrix type="matrix" values="0 0 0 0 0 0 0 0 0 0 0 0 0 0 0 0 0 0 0.25 0"/>
<feBlend mode="normal" in2="BackgroundImageFix" result="effect1_dropShadow_939_907"/>
<feBlend mode="normal" in="SourceGraphic" in2="effect1_dropShadow_939_907" result="shape"/>
</filter>
<linearGradient id="paint0_linear_939_907" x1="-8.5" y1="-17.5" x2="102" y2="30.5" gradientUnits="userSpaceOnUse">
<stop stop-color="#FF902A"/>
<stop offset="0.479349" stop-color="#F6C107"/>
<stop offset="1" stop-color="#FF902A"/>
</linearGradient>
<clipPath id="clip0_939_907">
<rect width="91" height="16" fill="white" transform="translate(-17.0264 51.2395) rotate(-43.7673)"/>
</clipPath>
</defs>
</svg>
