
<svg width="24" height="24" viewBox="0 0 24 24" fill="none" xmlns="http://www.w3.org/2000/svg">
    <path d="M11.1919 13.5455V13.4943C11.1976 12.9517 11.2544 12.5199 11.3624 12.1989C11.4703 11.8778 11.6238 11.6179 11.8226 11.419C12.0215 11.2202 12.2601 11.0369 12.5385 10.8693C12.7061 10.767 12.8567 10.6463 12.9902 10.5071C13.1238 10.3651 13.2289 10.2017 13.3056 10.017C13.3851 9.83239 13.4249 9.62784 13.4249 9.40341C13.4249 9.125 13.3596 8.88352 13.2289 8.67898C13.0982 8.47443 12.9235 8.31676 12.7047 8.20597C12.486 8.09517 12.2431 8.03977 11.976 8.03977C11.7431 8.03977 11.5186 8.08807 11.3027 8.18466C11.0868 8.28125 10.9064 8.43324 10.7615 8.64062C10.6167 8.84801 10.5328 9.11932 10.5101 9.45455H9.43626C9.45898 8.97159 9.58398 8.55824 9.81126 8.21449C10.0414 7.87074 10.3439 7.60795 10.7189 7.42614C11.0968 7.24432 11.5158 7.15341 11.976 7.15341C12.476 7.15341 12.9107 7.25284 13.28 7.4517C13.6522 7.65057 13.9391 7.9233 14.1408 8.26989C14.3453 8.61648 14.4476 9.01136 14.4476 9.45455C14.4476 9.76705 14.3993 10.0497 14.3027 10.3026C14.209 10.5554 14.0726 10.7812 13.8936 10.9801C13.7175 11.179 13.5044 11.3551 13.2544 11.5085C13.0044 11.6648 12.8042 11.8295 12.6536 12.0028C12.503 12.1733 12.3936 12.3764 12.3255 12.6122C12.2573 12.848 12.2203 13.142 12.2147 13.4943V13.5455H11.1919ZM11.7374 16.0682C11.5272 16.0682 11.3468 15.9929 11.1962 15.8423C11.0456 15.6918 10.9703 15.5114 10.9703 15.3011C10.9703 15.0909 11.0456 14.9105 11.1962 14.7599C11.3468 14.6094 11.5272 14.5341 11.7374 14.5341C11.9476 14.5341 12.128 14.6094 12.2786 14.7599C12.4292 14.9105 12.5044 15.0909 12.5044 15.3011C12.5044 15.4403 12.4689 15.5682 12.3979 15.6847C12.3297 15.8011 12.2374 15.8949 12.1209 15.9659C12.0073 16.0341 11.8794 16.0682 11.7374 16.0682Z" fill="#053139"/>
    <path fill-rule="evenodd" clip-rule="evenodd" d="M12 2.7502C17.109 2.7502 21.25 6.8922 21.25 12.0002C21.25 17.1082 17.109 21.2502 12 21.2502C6.892 21.2502 2.75 17.1082 2.75 12.0002C2.75 6.8922 6.892 2.7502 12 2.7502Z" stroke="#053139" stroke-width="1.5" stroke-linecap="round" stroke-linejoin="round"/>
</svg>
