<svg xmlns="http://www.w3.org/2000/svg" width="19" height="20" viewBox="0 0 19 20" fill="none">
    <path fill-rule="evenodd" clip-rule="evenodd" d="M9.49986 4.07735C8.87803 4.07735 8.26229 4.19983 7.6878 4.43779C7.1133 4.67575 6.5913 5.02454 6.1516 5.46424C5.7119 5.90394 5.36311 6.42594 5.12515 7.00044C4.88718 7.57493 4.76471 8.19067 4.76471 8.8125C4.76471 11.5531 4.19009 13.2035 3.63867 14.1563H15.3611C14.8096 13.2035 14.235 11.553 14.235 8.8125C14.235 8.19067 14.1125 7.57493 13.8746 7.00044C13.6366 6.42594 13.2878 5.90394 12.8481 5.46424C12.4084 5.02454 11.8864 4.67575 11.3119 4.43779C10.7374 4.19983 10.1217 4.07735 9.49986 4.07735ZM7.23336 3.34068C7.95193 3.04304 8.72209 2.88985 9.49986 2.88985C10.2776 2.88985 11.0478 3.04304 11.7664 3.34068C12.4849 3.63832 13.1378 4.07458 13.6878 4.62455C14.2378 5.17452 14.674 5.82743 14.9717 6.546C15.2693 7.26457 15.4225 8.03473 15.4225 8.8125C15.4225 11.3854 15.9609 12.8223 16.3891 13.5619L16.3895 13.5625C16.4935 13.7427 16.5484 13.9471 16.5486 14.1552C16.5487 14.3633 16.4942 14.5678 16.3905 14.7482C16.2868 14.9286 16.1375 15.0786 15.9575 15.1831C15.7776 15.2876 15.5733 15.343 15.3652 15.3438L15.3631 15.3438H3.63658L3.63449 15.3438C3.4264 15.343 3.22215 15.2876 3.04221 15.1831C2.86226 15.0786 2.71295 14.9286 2.60922 14.7482C2.50549 14.5678 2.45099 14.3633 2.45117 14.1552C2.45136 13.9471 2.50622 13.7427 2.61027 13.5625L2.61062 13.5619C3.03879 12.8223 3.57721 11.3854 3.57721 8.8125C3.57721 8.03473 3.7304 7.26457 4.02804 6.546C4.32568 5.82743 4.76194 5.17452 5.31191 4.62455C5.86188 4.07458 6.51479 3.63832 7.23336 3.34068Z" fill="white"/>
    <path fill-rule="evenodd" clip-rule="evenodd" d="M7.125 14.1562C7.45292 14.1562 7.71875 14.4221 7.71875 14.75V15.3438C7.71875 15.8162 7.90642 16.2692 8.24047 16.6033C8.57452 16.9373 9.02758 17.125 9.5 17.125C9.97242 17.125 10.4255 16.9373 10.7595 16.6033C11.0936 16.2692 11.2812 15.8162 11.2812 15.3438V14.75C11.2812 14.4221 11.5471 14.1562 11.875 14.1562C12.2029 14.1562 12.4688 14.4221 12.4688 14.75V15.3438C12.4688 16.1311 12.156 16.8862 11.5992 17.443C11.0425 17.9997 10.2874 18.3125 9.5 18.3125C8.71264 18.3125 7.95753 17.9997 7.40078 17.443C6.84403 16.8862 6.53125 16.1311 6.53125 15.3438V14.75C6.53125 14.4221 6.79708 14.1562 7.125 14.1562Z" fill="white"/>
    <path fill-rule="evenodd" clip-rule="evenodd" d="M13.1098 1.96431C13.2849 1.68702 13.6515 1.60413 13.9288 1.77917C15.2299 2.60043 16.2799 3.76376 16.964 5.14184C17.1098 5.43556 16.9899 5.79187 16.6962 5.93768C16.4025 6.08349 16.0462 5.96359 15.9004 5.66988C15.3131 4.48693 14.4118 3.48832 13.295 2.78333C13.0177 2.60829 12.9348 2.2416 13.1098 1.96431Z" fill="white"/>
    <path fill-rule="evenodd" clip-rule="evenodd" d="M5.8904 1.96431C6.06544 2.2416 5.98255 2.60829 5.70525 2.78333C4.58845 3.48832 3.68709 4.48693 3.09982 5.66988C2.95401 5.96359 2.5977 6.08349 2.30398 5.93768C2.01027 5.79187 1.89037 5.43556 2.03618 5.14184C2.72032 3.76376 3.77035 2.60043 5.07138 1.77917C5.34867 1.60413 5.71536 1.68702 5.8904 1.96431Z" fill="white"/>
</svg>