<svg width="93" height="48" viewBox="0 0 93 48" fill="none" xmlns="http://www.w3.org/2000/svg">
<path d="M36.4801 13.7273V37H31.5597V18.3977H31.4233L26.0938 21.7386V17.375L31.8551 13.7273H36.4801ZM48.9659 33.4545V17.3636H53.0341V33.4545H48.9659ZM42.9545 27.4432V23.375H59.0455V27.4432H42.9545ZM73.8864 13.7273V37H68.9659V18.3977H68.8295L63.5 21.7386V17.375L69.2614 13.7273H73.8864Z" fill="#053139"/>
<path d="M7.71875 2L9.4653 9.3504L15.4375 11.5L9.4653 13.6496L7.71875 21L5.9722 13.6496L0 11.5L5.9722 9.3504L7.71875 2Z" fill="#053139"/>
<path d="M86.6875 34L87.9744 39.4161L92.375 41L87.9744 42.5839L86.6875 48L85.4006 42.5839L81 41L85.4006 39.4161L86.6875 34Z" fill="#053139"/>
<path d="M24.4688 0L25.4799 4.25549L28.9375 5.5L25.4799 6.74451L24.4688 11L23.4576 6.74451L20 5.5L23.4576 4.25549L24.4688 0Z" fill="#053139"/>
</svg>
