<svg xmlns="http://www.w3.org/2000/svg" width="19" height="20" viewBox="0 0 19 20" fill="none">
    <path fill-rule="evenodd" clip-rule="evenodd" d="M5.9375 2.875C5.60958 2.875 5.34375 3.14083 5.34375 3.46875V16.5312C5.34375 16.8592 5.60958 17.125 5.9375 17.125H13.0625C13.3904 17.125 13.6562 16.8592 13.6562 16.5312V3.46875C13.6562 3.14083 13.3904 2.875 13.0625 2.875H5.9375ZM4.15625 3.46875C4.15625 2.48499 4.95374 1.6875 5.9375 1.6875H13.0625C14.0463 1.6875 14.8438 2.48499 14.8438 3.46875V16.5312C14.8438 17.515 14.0463 18.3125 13.0625 18.3125H5.9375C4.95374 18.3125 4.15625 17.515 4.15625 16.5312V3.46875Z" fill="white"/>
    <path fill-rule="evenodd" clip-rule="evenodd" d="M7.71875 4.65625C7.71875 4.32833 7.80736 4.0625 7.91667 4.0625H11.0833C11.1926 4.0625 11.2812 4.32833 11.2812 4.65625C11.2812 4.98417 11.1926 5.25 11.0833 5.25H7.91667C7.80736 5.25 7.71875 4.98417 7.71875 4.65625Z" fill="white"/>
    <circle cx="9.5" cy="14.75" r="0.6875" stroke="white"/>
</svg>