<svg xmlns="http://www.w3.org/2000/svg" width="17" height="16" viewBox="0 0 17 16" fill="none">
    <path fill-rule="evenodd" clip-rule="evenodd" d="M8.49992 0.0834961C4.12767 0.0834961 0.583252 3.62791 0.583252 8.00016C0.583252 12.3724 4.12767 15.9168 8.49992 15.9168C12.8722 15.9168 16.4166 12.3724 16.4166 8.00016C16.4166 3.62791 12.8722 0.0834961 8.49992 0.0834961ZM8.49992 1.18815C12.2621 1.18815 15.3119 4.238 15.3119 8.00016C15.3119 11.7623 12.2621 14.8122 8.49992 14.8122C4.73775 14.8122 1.6879 11.7623 1.6879 8.00016C1.6879 4.238 4.73775 1.18815 8.49992 1.18815ZM7.60648 4.87668L7.52411 4.86884C7.36811 4.86349 7.20718 4.90265 7.06532 4.97918C6.88169 5.07748 6.73346 5.23678 6.65128 5.43401C6.6135 5.52531 6.54818 5.80716 6.5188 5.97085C6.44502 6.37313 6.40211 6.99179 6.39484 7.67071L6.39375 7.89903C6.39297 8.61937 6.43274 9.30502 6.50623 9.75679L6.54653 9.96433C6.58664 10.1489 6.63993 10.3456 6.68264 10.4285C6.84555 10.7432 7.17697 10.9376 7.52919 10.9264C7.6794 10.923 7.99498 10.8181 8.21443 10.726C9.00472 10.3936 10.3965 9.46184 11.0396 8.83361L11.2531 8.61135C11.3349 8.52402 11.3717 8.48338 11.4028 8.44086C11.5191 8.2828 11.5797 8.09183 11.5797 7.89846C11.5797 7.69303 11.5121 7.49245 11.383 7.32881L11.3199 7.25586L11.1429 7.06688C10.5357 6.41971 8.94678 5.35271 8.13515 5.03735C7.95663 4.9668 7.75532 4.8992 7.60648 4.87668ZM7.63384 6.0302L7.73213 6.06586C8.35474 6.30778 9.67588 7.18462 10.2395 7.72427L10.4072 7.89706L10.3437 7.96565C9.87368 8.4724 8.48578 9.41346 7.78648 9.70765L7.63457 9.76319L7.5962 9.57731C7.54114 9.2388 7.50612 8.70293 7.49952 8.1197L7.4984 7.89906C7.49774 7.26294 7.53023 6.66936 7.58619 6.28733L7.61308 6.1299L7.63384 6.0302Z" fill="white"/>
</svg>