<svg width="19" height="20" viewBox="0 0 19 20" fill="none" xmlns="http://www.w3.org/2000/svg">
<path d="M17.8125 6.92514C17.8125 6.35776 17.3475 5.89728 16.7735 5.89728H14.9998C15.4591 5.44913 15.7526 4.86222 15.7526 4.13912C15.7526 3.24898 15.2357 2.28125 13.7847 2.28125C11.8755 2.28125 10.2806 4.29227 9.53091 5.41932C8.78073 4.29227 7.13751 2.28125 5.22829 2.28125C3.77728 2.28125 3.26037 3.24847 3.26037 4.1386C3.26037 4.8617 3.5622 5.44913 4.03029 5.89676H2.22653C1.65247 5.89676 1.1875 6.35725 1.1875 6.92463V10.001H2.23588V16.6909C2.23588 17.2588 2.70085 17.7188 3.27491 17.7188H15.7381C16.3121 17.7188 16.7771 17.2588 16.7771 16.6909V10.0005H17.812V6.92411L17.8125 6.92514ZM13.7847 3.31014C14.4268 3.31014 14.7136 3.57739 14.7136 4.14014C14.7136 5.28159 13.4257 5.89779 12.2142 5.89779H10.4551C11.1934 4.81288 12.4927 3.31014 13.7847 3.31014ZM5.22881 3.31014C6.52084 3.31014 7.8695 4.81288 8.60773 5.89728H6.84866C5.63715 5.89728 4.30043 5.26566 4.30043 4.1237C4.30043 3.56094 4.58617 3.31014 5.22881 3.31014ZM16.7735 8.97419H10.0198V6.92566H16.7735V8.97419ZM2.22705 6.92514H8.98075V8.97368H2.22705V6.92514ZM3.27543 10.0021H8.98075V16.6924H3.27543V10.0021ZM15.7386 16.6924H10.0198V10.0026H15.7386V16.6924Z" fill="#053139"/>
</svg>
