<svg xmlns="http://www.w3.org/2000/svg" width="14" height="14" viewBox="0 0 14 14" fill="none">
    <path d="M4.85645 12.616C6.97805 13.4196 9.46339 12.9619 11.1705 11.2427C13.4972 8.8995 13.4972 5.10052 11.1705 2.75741C11.0107 2.59648 10.8441 2.44664 10.6717 2.30786" stroke="black" stroke-linecap="round" stroke-linejoin="round"/>
    <path d="M9.0591 1.38398C6.9375 0.58037 4.45215 1.03812 2.74502 2.75734C0.418327 5.10051 0.418327 8.89949 2.74502 11.2426C2.90482 11.4035 3.07141 11.5534 3.24385 11.6922" stroke="black" stroke-linecap="round" stroke-linejoin="round"/>
    <path d="M1.09131 11.9356L3.24509 11.6907L3.00197 9.52167" stroke="black" stroke-linecap="round" stroke-linejoin="round"/>
    <path d="M12.8247 2.06445L10.6709 2.3093L10.914 4.47838" stroke="black" stroke-linecap="round" stroke-linejoin="round"/>
    <path d="M6.7627 8.37521V4.47833" stroke="black" stroke-linecap="round" stroke-linejoin="round"/>
    <path d="M9.40152 9.21152L6.7627 8.37524" stroke="black" stroke-linecap="round" stroke-linejoin="round"/>
</svg>