<svg width="26" height="26" viewBox="0 0 26 26" fill="none" xmlns="http://www.w3.org/2000/svg">
<g id="Icons / Send">
<path id="Vector" d="M8.66703 12.9997L5.99566 20.8794C5.95607 20.9841 5.94791 21.0979 5.97215 21.2071C5.99638 21.3163 6.052 21.4163 6.13238 21.4954C6.21276 21.5744 6.31453 21.6291 6.42559 21.6529C6.53666 21.6767 6.65234 21.6687 6.75891 21.6298L21.1252 14.083L21.3482 13.9658L21.5713 13.8487L21.7943 13.7315C21.7943 13.7315 22.2085 13.5413 22.2085 12.9997C22.2085 12.458 21.7943 12.2679 21.7943 12.2679L21.5713 12.1507L21.3482 12.0335L21.1252 11.9163L6.75891 4.36955C6.65234 4.33062 6.53666 4.3226 6.42559 4.34643C6.31453 4.37026 6.21276 4.42494 6.13238 4.50397C6.052 4.58301 5.99638 4.68307 5.97215 4.79227C5.94791 4.90147 5.95607 5.01522 5.99566 5.11999L8.66703 12.9997ZM8.66703 12.9997H14.0835" stroke="white" stroke-width="1.5" stroke-linecap="round" stroke-linejoin="round"/>
</g>
</svg>
