<svg xmlns="http://www.w3.org/2000/svg" width="21" height="20" viewBox="0 0 21 20" fill="none">
    <path d="M12.7013 4.8012C12.5181 4.98813 12.4155 5.23945 12.4155 5.5012C12.4155 5.76295 12.5181 6.01427 12.7013 6.2012L14.3013 7.8012C14.4882 7.98443 14.7396 8.08706 15.0013 8.08706C15.2631 8.08706 15.5144 7.98443 15.7013 7.8012L19.4713 4.0312C19.9742 5.14239 20.1264 6.38043 19.9078 7.58035C19.6892 8.78026 19.11 9.88505 18.2476 10.7475C17.3852 11.6099 16.2804 12.189 15.0805 12.4077C13.8806 12.6263 12.6425 12.474 11.5313 11.9712L4.62132 18.8812C4.2235 19.279 3.68393 19.5025 3.12132 19.5025C2.55871 19.5025 2.01914 19.279 1.62132 18.8812C1.2235 18.4834 1 17.9438 1 17.3812C1 16.8186 1.2235 16.279 1.62132 15.8812L8.53132 8.9712C8.02848 7.86001 7.87624 6.62197 8.09486 5.42206C8.31349 4.22214 8.89261 3.11736 9.75504 2.25492C10.6175 1.39249 11.7223 0.813369 12.9222 0.594743C14.1221 0.376116 15.3601 0.528365 16.4713 1.0312L12.7113 4.7912L12.7013 4.8012Z" stroke="white" stroke-linecap="round" stroke-linejoin="round"/>
</svg>