<svg xmlns="http://www.w3.org/2000/svg" width="19" height="20" viewBox="0 0 19 20" fill="none">
    <path fill-rule="evenodd" clip-rule="evenodd" d="M8.80577 1.90168C9.00916 1.75924 9.25145 1.68283 9.49976 1.68283C9.74807 1.68283 9.99036 1.75924 10.1937 1.90168C10.3944 2.04219 10.5476 2.24025 10.6332 2.46958L12.2633 6.5746L12.2682 6.58729C12.2697 6.59134 12.2723 6.59487 12.2758 6.59744C12.2793 6.60002 12.2834 6.60152 12.2878 6.60177L12.2914 6.60199L16.6703 6.88403C17.8071 6.95784 18.1955 8.38076 17.3682 9.06848C17.3681 9.06861 17.3679 9.06874 17.3678 9.06886L14.0141 11.8661L14.0121 11.8677C14.0046 11.874 13.9989 11.8822 13.9959 11.8915C13.9929 11.9006 13.9924 11.9103 13.9946 11.9195C13.9947 11.9198 13.9947 11.92 13.9948 11.9203L15.0775 16.1771C15.3397 17.2119 14.2223 18.1439 13.2502 17.5307L13.2487 17.5298L9.50807 15.1548C9.50569 15.1532 9.50258 15.1522 9.49976 15.1522C9.49694 15.1522 9.49417 15.153 9.49179 15.1545L9.49086 15.1551L6.01111 17.3587C6.01093 17.3588 6.01074 17.359 6.01056 17.3591C4.94419 18.0371 3.71254 17.0063 4.00365 15.8653C4.00361 15.8654 4.0037 15.8651 4.00365 15.8653L5.00473 11.9203C5.00479 11.9201 5.00485 11.9198 5.0049 11.9196C5.00707 11.9103 5.00664 11.9006 5.00365 11.8915C5.00059 11.8822 4.99496 11.874 4.98742 11.8677L4.98547 11.8661L1.63174 9.06886C1.63158 9.06873 1.63142 9.0686 1.63126 9.06847C0.803997 8.38074 1.19216 6.95786 2.32886 6.88405L6.71176 6.60176C6.71608 6.60151 6.72023 6.60002 6.7237 6.59744C6.72718 6.59487 6.72984 6.59134 6.73134 6.58729L6.73621 6.5746L8.36636 2.46958C8.45195 2.24025 8.60514 2.04219 8.80577 1.90168ZM10.1449 14.1525C10.1448 14.1524 10.145 14.1525 10.1449 14.1525L13.8837 16.5263C13.8836 16.5262 13.8839 16.5264 13.8837 16.5263C13.8905 16.5305 13.8949 16.5322 13.8961 16.5325C13.8977 16.5322 13.9028 16.5308 13.9099 16.5255C13.9189 16.5187 13.9246 16.5102 13.9272 16.5032C13.9284 16.5001 13.9292 16.4967 13.9294 16.4925C13.9296 16.4884 13.9295 16.481 13.9266 16.4693C13.9266 16.4693 13.9266 16.4694 13.9266 16.4693L12.8422 12.2063C12.786 11.9796 12.7949 11.7416 12.868 11.5198C12.941 11.2985 13.0749 11.1022 13.2543 10.9534C13.2547 10.9532 13.255 10.9529 13.2554 10.9526L16.6091 8.15533C16.616 8.14956 16.619 8.14543 16.6202 8.14344C16.6216 8.14126 16.6228 8.13871 16.6237 8.13519C16.6258 8.12719 16.6266 8.11338 16.6216 8.09742C16.6167 8.08152 16.6094 8.07379 16.6072 8.07197C16.6065 8.07136 16.6063 8.07126 16.606 8.07116C16.606 8.07113 16.6025 8.06965 16.5939 8.06907C16.5938 8.06906 16.594 8.06907 16.5939 8.06907L12.2188 7.78727C12.2181 7.78723 12.2174 7.78718 12.2167 7.78714C11.9828 7.77312 11.758 7.69149 11.5696 7.55213C11.3828 7.41393 11.2398 7.22488 11.1576 7.00764L9.52684 2.90116C9.52471 2.8958 9.52266 2.89041 9.52068 2.88499C9.51912 2.88069 9.51628 2.87698 9.51253 2.87436C9.50879 2.87174 9.50433 2.87033 9.49976 2.87033C9.49519 2.87033 9.49073 2.87174 9.48699 2.87436C9.48324 2.87698 9.4804 2.88069 9.47884 2.88499C9.47686 2.89041 9.47481 2.8958 9.47268 2.90116L7.84195 7.00764C7.75976 7.22488 7.61674 7.41393 7.42991 7.55213C7.24152 7.69149 7.01673 7.77312 6.78285 7.78714L2.40581 8.06905C2.40575 8.06906 2.40588 8.06905 2.40581 8.06905C2.39717 8.06963 2.3936 8.07112 2.39353 8.07115C2.39326 8.07125 2.39304 8.07132 2.39228 8.07197C2.39013 8.07379 2.38282 8.08152 2.3779 8.09743C2.37296 8.11338 2.3737 8.12719 2.37581 8.13519C2.37674 8.13871 2.37792 8.14126 2.3793 8.14344C2.38055 8.14543 2.38349 8.14956 2.39044 8.15533L2.3914 8.15613L5.74413 10.9526C5.74452 10.9529 5.74491 10.9532 5.7453 10.9535C5.9247 11.1022 6.05855 11.2985 6.13149 11.5198C6.20459 11.7416 6.21353 11.9796 6.15729 12.2063L6.15652 12.2093L5.15432 16.1587C5.13287 16.2427 5.16246 16.3077 5.21669 16.3489C5.24445 16.37 5.27249 16.3791 5.29464 16.3806C5.31297 16.3819 5.33834 16.3793 5.37357 16.3569L8.8546 14.1525C8.85491 14.1523 8.85522 14.1521 8.85554 14.1519C9.04817 14.0296 9.27161 13.9647 9.49976 13.9647C9.72815 13.9647 9.95216 14.03 10.1449 14.1525Z" fill="white"/>
</svg>