<svg xmlns="http://www.w3.org/2000/svg" width="24" height="17" viewBox="0 0 24 17" fill="none">
    <path fill-rule="evenodd" clip-rule="evenodd" d="M10.4139 11L12.0439 15.505C12.1115 15.6921 12.2507 15.8447 12.4308 15.9291C12.611 16.0136 12.8173 16.0231 13.0044 15.9555C13.1915 15.8878 13.3441 15.7486 13.4286 15.5685C13.5131 15.3884 13.5225 15.1821 13.4549 14.995L8.37489 0.964965C8.27229 0.682681 8.0853 0.438813 7.83931 0.266482C7.59332 0.0941516 7.30024 0.00170898 6.99989 0.00170898C6.69954 0.00170898 6.40647 0.0941516 6.16047 0.266482C5.91448 0.438813 5.72749 0.682681 5.62489 0.964965L0.544891 14.995C0.50813 15.0883 0.490451 15.188 0.492899 15.2882C0.495348 15.3885 0.517875 15.4872 0.559147 15.5786C0.60042 15.67 0.6596 15.7522 0.733187 15.8203C0.806775 15.8884 0.893276 15.9411 0.987574 15.9752C1.08187 16.0093 1.18205 16.0242 1.28219 16.0189C1.38233 16.0136 1.48039 15.9883 1.57057 15.9444C1.66076 15.9006 1.74124 15.8391 1.80725 15.7636C1.87326 15.6881 1.92346 15.6002 1.95489 15.505L3.58589 11H10.4139ZM9.86989 9.49997L6.99989 1.57197L4.12989 9.49997H9.86989ZM14.9459 5.90197C15.8589 4.21897 17.6489 3.69697 19.2299 3.69697C20.2769 3.69697 21.3139 4.00897 22.1079 4.58196C22.9089 5.15897 23.4999 6.03697 23.4999 7.12997V15.25C23.4999 15.4489 23.4209 15.6396 23.2802 15.7803C23.1396 15.9209 22.9488 16 22.7499 16C22.551 16 22.3602 15.9209 22.2196 15.7803C22.0789 15.6396 21.9999 15.4489 21.9999 15.25V15.19C21.9853 15.1984 21.9706 15.2068 21.9559 15.215C21.0629 15.735 19.8599 16 18.5049 16C17.4539 16 16.4569 15.685 15.7099 15.052C14.9499 14.409 14.4929 13.474 14.4929 12.35C14.4929 11.431 14.8419 10.489 15.6609 9.78696C16.4709 9.09296 17.6609 8.69996 19.2299 8.69996H21.9999V7.12997C21.9999 6.62697 21.7369 6.16297 21.2309 5.79797C20.7179 5.42797 19.9959 5.19797 19.2299 5.19797C17.9109 5.19797 16.8009 5.62796 16.2639 6.61797C16.1678 6.79068 16.0075 6.91851 15.8177 6.97366C15.6279 7.0288 15.4241 7.00682 15.2504 6.91248C15.0768 6.81814 14.9474 6.65907 14.8903 6.46985C14.8333 6.28063 14.8533 6.07655 14.9459 5.90197ZM21.9999 10.2H19.2299C17.8989 10.2 17.0959 10.533 16.6369 10.926C16.4305 11.1006 16.2657 11.319 16.1543 11.5653C16.0429 11.8116 15.9877 12.0797 15.9929 12.35C15.9929 13.039 16.2599 13.553 16.6789 13.907C17.1089 14.272 17.7439 14.5 18.5049 14.5C19.6879 14.5 20.6069 14.265 21.2019 13.919C21.7839 13.579 21.9999 13.179 21.9999 12.785V10.2Z" fill="white"/>
</svg>