<svg xmlns="http://www.w3.org/2000/svg" width="21" height="20" viewBox="0 0 21 20" fill="none">
    <path d="M14.1944 6.30556H14.205M8.91667 5.25H8.92722M5.75 9.47222H5.76056M10.5 19.5C5.2533 19.5 1 15.2467 1 10C1 4.7533 5.2533 0.5 10.5 0.5C15.7467 0.5 20 4.7533 20 10C20 11.749 18.5823 13.1667 16.8333 13.1667H16.2C15.8078 13.1667 15.6116 13.1667 15.4475 13.1926C14.5441 13.3358 13.8358 14.0441 13.6926 14.9475C13.6667 15.1116 13.6667 15.3078 13.6667 15.7V16.3333C13.6667 18.0823 12.249 19.5 10.5 19.5ZM14.7222 6.30556C14.7222 6.59704 14.4859 6.83333 14.1944 6.83333C13.903 6.83333 13.6667 6.59704 13.6667 6.30556C13.6667 6.01407 13.903 5.77778 14.1944 5.77778C14.4859 5.77778 14.7222 6.01407 14.7222 6.30556ZM9.44444 5.25C9.44444 5.54148 9.20811 5.77778 8.91667 5.77778C8.62523 5.77778 8.38889 5.54148 8.38889 5.25C8.38889 4.95852 8.62523 4.72222 8.91667 4.72222C9.20811 4.72222 9.44444 4.95852 9.44444 5.25ZM6.27778 9.47222C6.27778 9.76366 6.04148 10 5.75 10C5.45852 10 5.22222 9.76366 5.22222 9.47222C5.22222 9.18078 5.45852 8.94444 5.75 8.94444C6.04148 8.94444 6.27778 9.18078 6.27778 9.47222Z" stroke="white" stroke-linecap="round" stroke-linejoin="round"/>
</svg>